<svg xmlns="http://www.w3.org/2000/svg" viewBox="0 0 63 56"><defs><style>.cls-1{fill:#f0f9fc;}</style></defs><g id="Layer_2" data-name="Layer 2"><g id="Layer_1-2" data-name="Layer 1"><path class="cls-1" d="M62.1,46.13,37.22,3.29a6.61,6.61,0,0,0-11.44,0L.9,46.13A6.58,6.58,0,0,0,6.62,56H56.39A6.57,6.57,0,0,0,62.1,46.13ZM45.49,42a1.37,1.37,0,0,1-.18.56,1.48,1.48,0,0,1-.38.44,1.26,1.26,0,0,1-.52.25,1.22,1.22,0,0,1-.57,0,1.3,1.3,0,0,1-.53-.22l-2.2-1.31a6.46,6.46,0,0,0-.22,1.75,1.35,1.35,0,0,1-.1.56,1.3,1.3,0,0,1-.3.49,1.45,1.45,0,0,1-.45.33,1.69,1.69,0,0,1-.54.12h0a1.39,1.39,0,0,1-1-.43,1.45,1.45,0,0,1-.42-1,9.1,9.1,0,0,1,.55-3.31l-5.7-3.38v6.77A8.86,8.86,0,0,1,36,44.82a1.4,1.4,0,0,1,.64.89,1.49,1.49,0,0,1-1,1.79,1.44,1.44,0,0,1-1.07-.18,6,6,0,0,0-1.58-.67v2.22a1.47,1.47,0,0,1-.41,1,1.35,1.35,0,0,1-1,.43,1.32,1.32,0,0,1-1-.43,1.43,1.43,0,0,1-.42-1V46.65a6,6,0,0,0-1.58.67,1.44,1.44,0,0,1-1.07.18,1.53,1.53,0,0,1-.88-.68,1.51,1.51,0,0,1-.16-1.11,1.38,1.38,0,0,1,.65-.89,8.73,8.73,0,0,1,3-1.17V36.88l-5.7,3.38a9.1,9.1,0,0,1,.55,3.31,1.45,1.45,0,0,1-.42,1,1.39,1.39,0,0,1-1,.43h0a1.45,1.45,0,0,1-1-.45,1.53,1.53,0,0,1-.4-1.05,6.13,6.13,0,0,0-.22-1.75l-2.2,1.31a1,1,0,0,1-.53.19,1.18,1.18,0,0,1-.56,0,1.38,1.38,0,0,1-.5-.25,1.73,1.73,0,0,1-.37-.44,1.64,1.64,0,0,1-.18-.54,1.61,1.61,0,0,1,0-.58,1.52,1.52,0,0,1,.25-.51,1.55,1.55,0,0,1,.43-.38l2.2-1.31a6,6,0,0,0-1.35-1.08,1.15,1.15,0,0,1-.43-.36,1.41,1.41,0,0,1-.26-.52,1.35,1.35,0,0,1-.05-.57,1.53,1.53,0,0,1,.17-.55,1.51,1.51,0,0,1,.36-.44,1.64,1.64,0,0,1,.49-.26,1.75,1.75,0,0,1,.56-.05,2.21,2.21,0,0,1,.53.18,9,9,0,0,1,2.49,2.15l5.7-3.4L22.94,31a8.45,8.45,0,0,1-2.49,2.13,1,1,0,0,1-.53.18,1.18,1.18,0,0,1-.56,0,1.16,1.16,0,0,1-.49-.26,1.29,1.29,0,0,1-.36-.44,1.37,1.37,0,0,1-.17-.55,1.38,1.38,0,0,1,.05-.57,1.57,1.57,0,0,1,.25-.5,2,2,0,0,1,.43-.38,5.32,5.32,0,0,0,1.36-1.06l-2.2-1.31a1.29,1.29,0,0,1-.43-.38,1.47,1.47,0,0,1-.25-.5,1.63,1.63,0,0,1,0-.58,1.78,1.78,0,0,1,.18-.55,1.53,1.53,0,0,1,.37-.43,1.24,1.24,0,0,1,.5-.25,1.19,1.19,0,0,1,.56,0,1.25,1.25,0,0,1,.53.19l2.2,1.29a5.87,5.87,0,0,0,.22-1.73,1.5,1.5,0,0,1,.4-1.05,1.35,1.35,0,0,1,1-.45h0a1.43,1.43,0,0,1,1,.41,1.54,1.54,0,0,1,.43,1,9,9,0,0,1-.56,3.29l5.7,3.4V25a8.32,8.32,0,0,1-3-1.15,1.47,1.47,0,0,1-.65-.91,1.5,1.5,0,0,1,.16-1.1,1.41,1.41,0,0,1,.88-.67,1.31,1.31,0,0,1,1.07.17,5.65,5.65,0,0,0,1.58.67V19.81a1.54,1.54,0,0,1,.42-1,1.43,1.43,0,0,1,1-.43,1.48,1.48,0,0,1,1,.43,1.57,1.57,0,0,1,.41,1V22a5.65,5.65,0,0,0,1.58-.67,1.31,1.31,0,0,1,1.07-.17,1.38,1.38,0,0,1,.88.67,1.5,1.5,0,0,1-.48,2A8.44,8.44,0,0,1,32.9,25V31.8l5.7-3.4a8.93,8.93,0,0,1-.55-3.29,1.58,1.58,0,0,1,.42-1,1.45,1.45,0,0,1,1-.41h0a1.3,1.3,0,0,1,.54.13,1.47,1.47,0,0,1,.46.32,1.6,1.6,0,0,1,.39,1.05,6.46,6.46,0,0,0,.22,1.75l2.2-1.31a1.46,1.46,0,0,1,.53-.22,1.57,1.57,0,0,1,.57,0,1.38,1.38,0,0,1,.88.69,1.37,1.37,0,0,1,.18.55,1.46,1.46,0,0,1,0,.59,1.26,1.26,0,0,1-.26.5,1.23,1.23,0,0,1-.44.38l-2.2,1.31a5.32,5.32,0,0,0,1.36,1.06,1.73,1.73,0,0,1,.43.38,1.47,1.47,0,0,1,.25.5,1.38,1.38,0,0,1,0,.57,1.23,1.23,0,0,1-.17.55,1.29,1.29,0,0,1-.36.44,1.16,1.16,0,0,1-.49.26,1.18,1.18,0,0,1-.56,0,1.08,1.08,0,0,1-.53-.18A8.45,8.45,0,0,1,40,31l-5.69,3.38L40,37.74a8.64,8.64,0,0,1,2.49-2.14,1.32,1.32,0,0,1,1.08-.12,1.35,1.35,0,0,1,.84.7,1.48,1.48,0,0,1,.13,1.11,1.44,1.44,0,0,1-.67.86,6.47,6.47,0,0,0-1.36,1.08l2.2,1.31a1.74,1.74,0,0,1,.45.36,1.54,1.54,0,0,1,.26.53A1.43,1.43,0,0,1,45.49,42Z"/></g></g></svg>